+ filenameToUse=/home/horvathandras/vatic/vatic/public/videouploads/DJI_0097_30m_ragas_tobb_helyen.avi
+ filenameNoDot=DJI_0097_30m_ragas_tobb_helyen_Vaskut_20180512_napos_kalaszos_T1
+ FullUploadPath=/home/horvathandras/vatic/vatic/public/videouploads/DJI_0097_30m_ragas_tobb_helyen.avi
+ VideoDataDir=/home/horvathandras/vatic/vatic/videos
+ AvailableObjectTypes='PozitívROI NegatívROI Túrás ~Friss ~Régebbi Rágás ~Friss ~Régebbi Törés ~Friss ~Régebbi Taposás ~Friss ~Régebbi EgészségesNövény Egyéb1 Egyéb2 Egyéb3 Egyéb4 Egyéb5'
++ dirname /home/horvathandras/vatic/vatic/vatic_publisher.sh
+ cd /home/horvathandras/vatic/vatic
+ touch /home/horvathandras/vatic/vatic/public/videouploads/DJI_0097_30m_ragas_tobb_helyen.avi
+ chmod 744 /home/horvathandras/vatic/vatic/public/videouploads/DJI_0097_30m_ragas_tobb_helyen.avi
+ mkdir /home/horvathandras/vatic/vatic/videos/DJI_0097_30m_ragas_tobb_helyen_Vaskut_20180512_napos_kalaszos_T1
+ turkic extract /home/horvathandras/vatic/vatic/public/videouploads/DJI_0097_30m_ragas_tobb_helyen.avi /home/horvathandras/vatic/vatic/videos/DJI_0097_30m_ragas_tobb_helyen_Vaskut_20180512_napos_kalaszos_T1 --no-resize
ffmpeg version 2.8.14-0ubuntu0.16.04.1 Copyright (c) 2000-2018 the FFmpeg developers
  built with gcc 5.4.0 (Ubuntu 5.4.0-6ubuntu1~16.04.9) 20160609
  configuration: --prefix=/usr --extra-version=0ubuntu0.16.04.1 --build-suffix=-ffmpeg --toolchain=hardened --libdir=/usr/lib/x86_64-linux-gnu --incdir=/usr/include/x86_64-linux-gnu --cc=cc --cxx=g++ --enable-gpl --enable-shared --disable-stripping --disable-decoder=libopenjpeg --disable-decoder=libschroedinger --enable-avresample --enable-avisynth --enable-gnutls --enable-ladspa --enable-libass --enable-libbluray --enable-libbs2b --enable-libcaca --enable-libcdio --enable-libflite --enable-libfontconfig --enable-libfreetype --enable-libfribidi --enable-libgme --enable-libgsm --enable-libmodplug --enable-libmp3lame --enable-libopenjpeg --enable-libopus --enable-libpulse --enable-librtmp --enable-libschroedinger --enable-libshine --enable-libsnappy --enable-libsoxr --enable-libspeex --enable-libssh --enable-libtheora --enable-libtwolame --enable-libvorbis --enable-libvpx --enable-libwavpack --enable-libwebp --enable-libx265 --enable-libxvid --enable-libzvbi --enable-openal --enable-opengl --enable-x11grab --enable-libdc1394 --enable-libiec61883 --enable-libzmq --enable-frei0r --enable-libx264 --enable-libopencv
  libavutil      54. 31.100 / 54. 31.100
  libavcodec     56. 60.100 / 56. 60.100
  libavformat    56. 40.101 / 56. 40.101
  libavdevice    56.  4.100 / 56.  4.100
  libavfilter     5. 40.101 /  5. 40.101
  libavresample   2.  1.  0 /  2.  1.  0
  libswscale      3.  1.101 /  3.  1.101
  libswresample   1.  2.101 /  1.  2.101
  libpostproc    53.  3.100 / 53.  3.100
Input #0, mov,mp4,m4a,3gp,3g2,mj2, from '/home/horvathandras/vatic/vatic/public/videouploads/DJI_0097_30m_ragas_tobb_helyen.avi':
  Metadata:
    major_brand     : qt  
    minor_version   : 537986816
    compatible_brands: qt  
    creation_time   : 2018-05-12 15:04:17
    location        : +46.076444+18.994942+30.000
    location-{    : +46.076444+18.994942+30.000
    comment         : DE=None, Mode=P, DSW=0001
  Duration: 00:00:38.89, start: 0.000000, bitrate: 100350 kb/s
    Stream #0:0(eng): Video: h264 (High) (avc1 / 0x31637661), yuv420p(tv, bt709), 4096x2160 [SAR 1:1 DAR 256:135], 100252 kb/s, 59.94 fps, 59.94 tbr, 60k tbn, 119.88 tbc (default)
    Metadata:
      creation_time   : 2018-05-12 15:04:17
      handler_name    : DJI.AVC
      encoder         : AVC encoder
    Stream #0:1(eng): Data: none (priv / 0x76697270), 91 kb/s
    Metadata:
      creation_time   : 2018-05-12 15:04:17
      handler_name    : DJI.Meta
Please use -b:a or -b:v, -b is ambiguous
[swscaler @ 0x14ab3c0] deprecated pixel format used, make sure you did set range correctly
Output #0, image2, to '/tmp/pyvision-ffmpeg-718657287/%d.jpg':
  Metadata:
    major_brand     : qt  
    minor_version   : 537986816
    compatible_brands: qt  
    comment         : DE=None, Mode=P, DSW=0001
    location        : +46.076444+18.994942+30.000
    location-{    : +46.076444+18.994942+30.000
    encoder         : Lavf56.40.101
    Stream #0:0(eng): Video: mjpeg, yuvj420p(pc), 4096x2160 [SAR 1:1 DAR 256:135], q=2-31, 10000 kb/s, 59.94 fps, 59.94 tbn, 59.94 tbc (default)
    Metadata:
      creation_time   : 2018-05-12 15:04:17
      handler_name    : DJI.AVC
      encoder         : Lavc56.60.100 mjpeg
Stream mapping:
  Stream #0:0 -> #0:0 (h264 (native) -> mjpeg (native))
Press [q] to stop, [?] for help
frame=    1 fps=0.0 q=17.0 size=N/A time=00:00:00.01 bitrate=N/A    frame=    6 fps=5.3 q=24.8 size=N/A time=00:00:00.10 bitrate=N/A    frame=   11 fps=6.5 q=24.8 size=N/A time=00:00:00.18 bitrate=N/A    frame=   16 fps=7.1 q=24.8 size=N/A time=00:00:00.26 bitrate=N/A    frame=   21 fps=7.5 q=24.8 size=N/A time=00:00:00.35 bitrate=N/A    frame=   26 fps=7.8 q=24.8 size=N/A time=00:00:00.43 bitrate=N/A    frame=   31 fps=8.0 q=24.8 size=N/A time=00:00:00.51 bitrate=N/A    frame=   36 fps=8.1 q=24.8 size=N/A time=00:00:00.60 bitrate=N/A    frame=   41 fps=8.2 q=24.8 size=N/A time=00:00:00.68 bitrate=N/A    frame=   46 fps=8.3 q=24.8 size=N/A time=00:00:00.76 bitrate=N/A    frame=   51 fps=8.4 q=24.8 size=N/A time=00:00:00.85 bitrate=N/A    frame=   56 fps=8.4 q=24.8 size=N/A time=00:00:00.93 bitrate=N/A    frame=   61 fps=8.5 q=24.8 size=N/A time=00:00:01.01 bitrate=N/A    frame=   66 fps=8.5 q=24.8 size=N/A time=00:00:01.10 bitrate=N/A    frame=   71 fps=8.6 q=24.8 size=N/A time=00:00:01.18 bitrate=N/A    frame=   76 fps=8.6 q=24.8 size=N/A time=00:00:01.26 bitrate=N/A    frame=   81 fps=8.6 q=24.8 size=N/A time=00:00:01.35 bitrate=N/A    frame=   86 fps=8.7 q=24.8 size=N/A time=00:00:01.43 bitrate=N/A    frame=   91 fps=8.7 q=24.8 size=N/A time=00:00:01.51 bitrate=N/A    frame=   96 fps=8.7 q=24.8 size=N/A time=00:00:01.60 bitrate=N/A    frame=  101 fps=8.7 q=24.8 size=N/A time=00:00:01.68 bitrate=N/A    frame=  106 fps=8.7 q=24.8 size=N/A time=00:00:01.76 bitrate=N/A    frame=  111 fps=8.8 q=24.8 size=N/A time=00:00:01.85 bitrate=N/A    frame=  116 fps=8.8 q=24.8 size=N/A time=00:00:01.93 bitrate=N/A    frame=  121 fps=8.8 q=24.8 size=N/A time=00:00:02.01 bitrate=N/A    frame=  126 fps=8.8 q=24.8 size=N/A time=00:00:02.10 bitrate=N/A    frame=  131 fps=8.8 q=24.8 size=N/A time=00:00:02.18 bitrate=N/A    frame=  136 fps=8.8 q=24.8 size=N/A time=00:00:02.26 bitrate=N/A    frame=  141 fps=8.8 q=24.8 size=N/A time=00:00:02.35 bitrate=N/A    frame=  146 fps=8.9 q=24.8 size=N/A time=00:00:02.43 bitrate=N/A    frame=  151 fps=8.9 q=24.8 size=N/A time=00:00:02.51 bitrate=N/A    frame=  156 fps=8.9 q=24.8 size=N/A time=00:00:02.60 bitrate=N/A    frame=  161 fps=8.9 q=24.8 size=N/A time=00:00:02.68 bitrate=N/A    frame=  166 fps=8.9 q=24.8 size=N/A time=00:00:02.76 bitrate=N/A    frame=  171 fps=8.9 q=24.8 size=N/A time=00:00:02.85 bitrate=N/A    frame=  176 fps=8.9 q=24.8 size=N/A time=00:00:02.93 bitrate=N/A    frame=  181 fps=8.9 q=24.8 size=N/A time=00:00:03.01 bitrate=N/A    frame=  186 fps=8.9 q=24.8 size=N/A time=00:00:03.10 bitrate=N/A    frame=  191 fps=8.9 q=24.8 size=N/A time=00:00:03.18 bitrate=N/A    frame=  196 fps=8.9 q=24.8 size=N/A time=00:00:03.26 bitrate=N/A    frame=  201 fps=8.9 q=24.8 size=N/A time=00:00:03.35 bitrate=N/A    frame=  206 fps=9.0 q=24.8 size=N/A time=00:00:03.43 bitrate=N/A    frame=  211 fps=9.0 q=24.8 size=N/A time=00:00:03.52 bitrate=N/A    frame=  216 fps=9.0 q=24.8 size=N/A time=00:00:03.60 bitrate=N/A    frame=  221 fps=9.0 q=24.8 size=N/A time=00:00:03.68 bitrate=N/A    frame=  226 fps=9.0 q=24.8 size=N/A time=00:00:03.77 bitrate=N/A    frame=  231 fps=9.0 q=24.8 size=N/A time=00:00:03.85 bitrate=N/A    frame=  236 fps=9.0 q=24.8 size=N/A time=00:00:03.93 bitrate=N/A    frame=  241 fps=9.0 q=24.8 size=N/A time=00:00:04.02 bitrate=N/A    frame=  246 fps=9.0 q=24.8 size=N/A time=00:00:04.10 bitrate=N/A    frame=  251 fps=9.0 q=24.8 size=N/A time=00:00:04.18 bitrate=N/A    frame=  256 fps=9.0 q=24.8 size=N/A time=00:00:04.27 bitrate=N/A    frame=  261 fps=9.0 q=24.8 size=N/A time=00:00:04.35 bitrate=N/A    frame=  266 fps=9.0 q=24.8 size=N/A time=00:00:04.43 bitrate=N/A    frame=  271 fps=9.0 q=24.8 size=N/A time=00:00:04.52 bitrate=N/A    frame=  276 fps=9.0 q=24.8 size=N/A time=00:00:04.60 bitrate=N/A    frame=  281 fps=9.0 q=24.8 size=N/A time=00:00:04.68 bitrate=N/A    frame=  286 fps=9.0 q=24.8 size=N/A time=00:00:04.77 bitrate=N/A    frame=  291 fps=9.0 q=24.8 size=N/A time=00:00:04.85 bitrate=N/A    frame=  296 fps=9.0 q=24.8 size=N/A time=00:00:04.93 bitrate=N/A    frame=  301 fps=9.0 q=24.8 size=N/A time=00:00:05.02 bitrate=N/A    frame=  306 fps=9.0 q=24.8 size=N/A time=00:00:05.10 bitrate=N/A    frame=  311 fps=9.0 q=24.8 size=N/A time=00:00:05.18 bitrate=N/A    frame=  316 fps=9.0 q=24.8 size=N/A time=00:00:05.27 bitrate=N/A    frame=  321 fps=9.0 q=24.8 size=N/A time=00:00:05.35 bitrate=N/A    frame=  326 fps=9.0 q=24.8 size=N/A time=00:00:05.43 bitrate=N/A    frame=  331 fps=9.0 q=24.8 size=N/A time=00:00:05.52 bitrate=N/A    frame=  336 fps=9.0 q=24.8 size=N/A time=00:00:05.60 bitrate=N/A    frame=  341 fps=9.0 q=24.8 size=N/A time=00:00:05.68 bitrate=N/A    frame=  346 fps=9.1 q=24.8 size=N/A time=00:00:05.77 bitrate=N/A    frame=  351 fps=9.1 q=24.8 size=N/A time=00:00:05.85 bitrate=N/A    frame=  356 fps=9.1 q=24.8 size=N/A time=00:00:05.93 bitrate=N/A    frame=  361 fps=9.1 q=24.8 size=N/A time=00:00:06.02 bitrate=N/A    frame=  366 fps=9.1 q=24.8 size=N/A time=00:00:06.10 bitrate=N/A    frame=  371 fps=9.1 q=24.8 size=N/A time=00:00:06.18 bitrate=N/A    frame=  376 fps=9.1 q=24.8 size=N/A time=00:00:06.27 bitrate=N/A    frame=  381 fps=9.1 q=24.8 size=N/A time=00:00:06.35 bitrate=N/A    frame=  386 fps=9.1 q=24.8 size=N/A time=00:00:06.43 bitrate=N/A    frame=  391 fps=9.1 q=24.8 size=N/A time=00:00:06.52 bitrate=N/A    frame=  396 fps=9.1 q=24.8 size=N/A time=00:00:06.60 bitrate=N/A    frame=  401 fps=9.1 q=24.8 size=N/A time=00:00:06.69 bitrate=N/A    frame=  406 fps=9.1 q=24.8 size=N/A time=00:00:06.77 bitrate=N/A    frame=  411 fps=9.1 q=24.8 size=N/A time=00:00:06.85 bitrate=N/A    frame=  416 fps=9.1 q=24.8 size=N/A time=00:00:06.94 bitrate=N/A    frame=  421 fps=9.1 q=24.8 size=N/A time=00:00:07.02 bitrate=N/A    frame=  426 fps=9.1 q=24.8 size=N/A time=00:00:07.10 bitrate=N/A    frame=  431 fps=9.1 q=24.8 size=N/A time=00:00:07.19 bitrate=N/A    frame=  436 fps=9.1 q=24.8 size=N/A time=00:00:07.27 bitrate=N/A    frame=  441 fps=9.1 q=24.8 size=N/A time=00:00:07.35 bitrate=N/A    frame=  446 fps=9.1 q=24.8 size=N/A time=00:00:07.44 bitrate=N/A    frame=  451 fps=9.1 q=24.8 size=N/A time=00:00:07.52 bitrate=N/A    frame=  456 fps=9.1 q=24.8 size=N/A time=00:00:07.60 bitrate=N/A    frame=  461 fps=9.1 q=24.8 size=N/A time=00:00:07.69 bitrate=N/A    frame=  466 fps=9.1 q=24.8 size=N/A time=00:00:07.77 bitrate=N/A    frame=  471 fps=9.1 q=24.8 size=N/A time=00:00:07.85 bitrate=N/A    frame=  476 fps=9.1 q=24.8 size=N/A time=00:00:07.94 bitrate=N/A    frame=  481 fps=9.1 q=24.8 size=N/A time=00:00:08.02 bitrate=N/A    frame=  486 fps=9.1 q=24.8 size=N/A time=00:00:08.10 bitrate=N/A    frame=  491 fps=9.1 q=24.8 size=N/A time=00:00:08.19 bitrate=N/A    frame=  496 fps=9.1 q=24.8 size=N/A time=00:00:08.27 bitrate=N/A    frame=  501 fps=9.1 q=24.8 size=N/A time=00:00:08.35 bitrate=N/A    frame=  506 fps=9.1 q=24.8 size=N/A time=00:00:08.44 bitrate=N/A    frame=  511 fps=9.1 q=24.8 size=N/A time=00:00:08.52 bitrate=N/A    frame=  516 fps=9.1 q=24.8 size=N/A time=00:00:08.60 bitrate=N/A    frame=  521 fps=9.1 q=24.8 size=N/A time=00:00:08.69 bitrate=N/A    frame=  526 fps=9.1 q=24.8 size=N/A time=00:00:08.77 bitrate=N/A    frame=  531 fps=9.1 q=24.8 size=N/A time=00:00:08.85 bitrate=N/A    frame=  536 fps=9.1 q=24.8 size=N/A time=00:00:08.94 bitrate=N/A    frame=  541 fps=9.1 q=24.8 size=N/A time=00:00:09.02 bitrate=N/A    frame=  546 fps=9.1 q=24.8 size=N/A time=00:00:09.10 bitrate=N/A    frame=  551 fps=9.1 q=24.8 size=N/A time=00:00:09.19 bitrate=N/A    frame=  556 fps=9.1 q=24.8 size=N/A time=00:00:09.27 bitrate=N/A    frame=  561 fps=9.1 q=24.8 size=N/A time=00:00:09.35 bitrate=N/A    frame=  566 fps=9.1 q=24.8 size=N/A time=00:00:09.44 bitrate=N/A    frame=  571 fps=9.1 q=24.8 size=N/A time=00:00:09.52 bitrate=N/A    frame=  576 fps=9.1 q=24.8 size=N/A time=00:00:09.60 bitrate=N/A    frame=  581 fps=9.1 q=24.8 size=N/A time=00:00:09.69 bitrate=N/A    frame=  586 fps=9.1 q=24.8 size=N/A time=00:00:09.77 bitrate=N/A    frame=  591 fps=9.1 q=24.8 size=N/A time=00:00:09.85 bitrate=N/A    frame=  596 fps=9.1 q=24.8 size=N/A time=00:00:09.94 bitrate=N/A    frame=  601 fps=9.1 q=24.8 size=N/A time=00:00:10.02 bitrate=N/A    frame=  606 fps=9.1 q=24.8 size=N/A time=00:00:10.11 bitrate=N/A    frame=  611 fps=9.1 q=24.8 size=N/A time=00:00:10.19 bitrate=N/A    frame=  616 fps=9.1 q=24.8 size=N/A time=00:00:10.27 bitrate=N/A    frame=  621 fps=9.1 q=24.8 size=N/A time=00:00:10.36 bitrate=N/A    frame=  626 fps=9.1 q=24.8 size=N/A time=00:00:10.44 bitrate=N/A    frame=  631 fps=9.1 q=24.8 size=N/A time=00:00:10.52 bitrate=N/A    frame=  636 fps=9.1 q=24.8 size=N/A time=00:00:10.61 bitrate=N/A    frame=  641 fps=9.1 q=24.8 size=N/A time=00:00:10.69 bitrate=N/A    frame=  646 fps=9.1 q=24.8 size=N/A time=00:00:10.77 bitrate=N/A    frame=  651 fps=9.1 q=24.8 size=N/A time=00:00:10.86 bitrate=N/A    frame=  656 fps=9.1 q=24.8 size=N/A time=00:00:10.94 bitrate=N/A    frame=  661 fps=9.1 q=24.8 size=N/A time=00:00:11.02 bitrate=N/A    frame=  666 fps=9.1 q=24.8 size=N/A time=00:00:11.11 bitrate=N/A    frame=  671 fps=9.1 q=24.8 size=N/A time=00:00:11.19 bitrate=N/A    frame=  676 fps=9.1 q=24.8 size=N/A time=00:00:11.27 bitrate=N/A    frame=  681 fps=9.1 q=24.8 size=N/A time=00:00:11.36 bitrate=N/A    frame=  686 fps=9.1 q=24.8 size=N/A time=00:00:11.44 bitrate=N/A    frame=  691 fps=9.1 q=24.8 size=N/A time=00:00:11.52 bitrate=N/A    frame=  696 fps=9.1 q=24.8 size=N/A time=00:00:11.61 bitrate=N/A    frame=  701 fps=9.1 q=24.8 size=N/A time=00:00:11.69 bitrate=N/A    frame=  706 fps=9.1 q=24.8 size=N/A time=00:00:11.77 bitrate=N/A    frame=  711 fps=9.1 q=24.8 size=N/A time=00:00:11.86 bitrate=N/A    frame=  716 fps=9.1 q=24.8 size=N/A time=00:00:11.94 bitrate=N/A    frame=  721 fps=9.1 q=24.8 size=N/A time=00:00:12.02 bitrate=N/A    frame=  726 fps=9.1 q=24.8 size=N/A time=00:00:12.11 bitrate=N/A    frame=  731 fps=9.1 q=24.8 size=N/A time=00:00:12.19 bitrate=N/A    frame=  736 fps=9.1 q=24.8 size=N/A time=00:00:12.27 bitrate=N/A    frame=  741 fps=9.1 q=24.8 size=N/A time=00:00:12.36 bitrate=N/A    frame=  746 fps=9.1 q=24.8 size=N/A time=00:00:12.44 bitrate=N/A    frame=  751 fps=9.1 q=24.8 size=N/A time=00:00:12.52 bitrate=N/A    frame=  756 fps=9.1 q=24.8 size=N/A time=00:00:12.61 bitrate=N/A    frame=  761 fps=9.1 q=24.8 size=N/A time=00:00:12.69 bitrate=N/A    frame=  766 fps=9.1 q=24.8 size=N/A time=00:00:12.77 bitrate=N/A    frame=  771 fps=9.1 q=24.8 size=N/A time=00:00:12.86 bitrate=N/A    frame=  776 fps=9.1 q=24.8 size=N/A time=00:00:12.94 bitrate=N/A    frame=  781 fps=9.1 q=24.8 size=N/A time=00:00:13.02 bitrate=N/A    frame=  786 fps=9.1 q=24.8 size=N/A time=00:00:13.11 bitrate=N/A    frame=  791 fps=9.1 q=24.8 size=N/A time=00:00:13.19 bitrate=N/A    frame=  796 fps=9.1 q=24.8 size=N/A time=00:00:13.27 bitrate=N/A    frame=  801 fps=9.1 q=24.8 size=N/A time=00:00:13.36 bitrate=N/A    frame=  806 fps=9.2 q=24.8 size=N/A time=00:00:13.44 bitrate=N/A    frame=  811 fps=9.2 q=24.8 size=N/A time=00:00:13.53 bitrate=N/A    frame=  816 fps=9.2 q=24.8 size=N/A time=00:00:13.61 bitrate=N/A    frame=  821 fps=9.2 q=24.8 size=N/A time=00:00:13.69 bitrate=N/A    frame=  826 fps=9.2 q=24.8 size=N/A time=00:00:13.78 bitrate=N/A    frame=  831 fps=9.2 q=24.8 size=N/A time=00:00:13.86 bitrate=N/A    frame=  836 fps=9.2 q=24.8 size=N/A time=00:00:13.94 bitrate=N/A    frame=  841 fps=9.2 q=24.8 size=N/A time=00:00:14.03 bitrate=N/A    frame=  846 fps=9.2 q=24.8 size=N/A time=00:00:14.11 bitrate=N/A    frame=  851 fps=9.2 q=24.8 size=N/A time=00:00:14.19 bitrate=N/A    frame=  856 fps=9.2 q=24.8 size=N/A time=00:00:14.28 bitrate=N/A    frame=  861 fps=9.2 q=24.8 size=N/A time=00:00:14.36 bitrate=N/A    frame=  866 fps=9.2 q=24.8 size=N/A time=00:00:14.44 bitrate=N/A    frame=  871 fps=9.2 q=24.8 size=N/A time=00:00:14.53 bitrate=N/A    frame=  876 fps=9.2 q=24.8 size=N/A time=00:00:14.61 bitrate=N/A    frame=  881 fps=9.2 q=24.8 size=N/A time=00:00:14.69 bitrate=N/A    frame=  886 fps=9.2 q=24.8 size=N/A time=00:00:14.78 bitrate=N/A    frame=  891 fps=9.2 q=24.8 size=N/A time=00:00:14.86 bitrate=N/A    frame=  896 fps=9.2 q=24.8 size=N/A time=00:00:14.94 bitrate=N/A    frame=  901 fps=9.2 q=24.8 size=N/A time=00:00:15.03 bitrate=N/A    frame=  906 fps=9.2 q=24.8 size=N/A time=00:00:15.11 bitrate=N/A    frame=  911 fps=9.2 q=24.8 size=N/A time=00:00:15.19 bitrate=N/A    frame=  916 fps=9.2 q=24.8 size=N/A time=00:00:15.28 bitrate=N/A    frame=  921 fps=9.2 q=24.8 size=N/A time=00:00:15.36 bitrate=N/A    frame=  926 fps=9.2 q=24.8 size=N/A time=00:00:15.44 bitrate=N/A    frame=  931 fps=9.2 q=24.8 size=N/A time=00:00:15.53 bitrate=N/A    frame=  936 fps=9.2 q=24.8 size=N/A time=00:00:15.61 bitrate=N/A    frame=  941 fps=9.2 q=24.8 size=N/A time=00:00:15.69 bitrate=N/A    frame=  946 fps=9.2 q=24.8 size=N/A time=00:00:15.78 bitrate=N/A    frame=  951 fps=9.2 q=24.8 size=N/A time=00:00:15.86 bitrate=N/A    frame=  956 fps=9.2 q=24.8 size=N/A time=00:00:15.94 bitrate=N/A    frame=  961 fps=9.2 q=24.8 size=N/A time=00:00:16.03 bitrate=N/A    frame=  966 fps=9.2 q=24.8 size=N/A time=00:00:16.11 bitrate=N/A    frame=  971 fps=9.2 q=24.8 size=N/A time=00:00:16.19 bitrate=N/A    frame=  976 fps=9.2 q=24.8 size=N/A time=00:00:16.28 bitrate=N/A    frame=  981 fps=9.2 q=24.8 size=N/A time=00:00:16.36 bitrate=N/A    frame=  986 fps=9.2 q=24.8 size=N/A time=00:00:16.44 bitrate=N/A    frame=  991 fps=9.2 q=24.8 size=N/A time=00:00:16.53 bitrate=N/A    frame=  996 fps=9.2 q=24.8 size=N/A time=00:00:16.61 bitrate=N/A    frame= 1001 fps=9.2 q=24.8 size=N/A time=00:00:16.70 bitrate=N/A    frame= 1006 fps=9.2 q=24.8 size=N/A time=00:00:16.78 bitrate=N/A    frame= 1011 fps=9.2 q=24.8 size=N/A time=00:00:16.86 bitrate=N/A    frame= 1016 fps=9.2 q=24.8 size=N/A time=00:00:16.95 bitrate=N/A    frame= 1021 fps=9.2 q=24.8 size=N/A time=00:00:17.03 bitrate=N/A    frame= 1026 fps=9.2 q=24.8 size=N/A time=00:00:17.11 bitrate=N/A    frame= 1031 fps=9.2 q=24.8 size=N/A time=00:00:17.20 bitrate=N/A    frame= 1036 fps=9.2 q=24.8 size=N/A time=00:00:17.28 bitrate=N/A    frame= 1041 fps=9.2 q=24.8 size=N/A time=00:00:17.36 bitrate=N/A    frame= 1046 fps=9.2 q=24.8 size=N/A time=00:00:17.45 bitrate=N/A    frame= 1051 fps=9.2 q=24.8 size=N/A time=00:00:17.53 bitrate=N/A    frame= 1056 fps=9.2 q=24.8 size=N/A time=00:00:17.61 bitrate=N/A    frame= 1061 fps=9.2 q=24.8 size=N/A time=00:00:17.70 bitrate=N/A    frame= 1066 fps=9.2 q=24.8 size=N/A time=00:00:17.78 bitrate=N/A    frame= 1071 fps=9.2 q=24.8 size=N/A time=00:00:17.86 bitrate=N/A    frame= 1076 fps=9.2 q=24.8 size=N/A time=00:00:17.95 bitrate=N/A    frame= 1081 fps=9.2 q=24.8 size=N/A time=00:00:18.03 bitrate=N/A    frame= 1086 fps=9.2 q=24.8 size=N/A time=00:00:18.11 bitrate=N/A    frame= 1091 fps=9.2 q=24.8 size=N/A time=00:00:18.20 bitrate=N/A    frame= 1096 fps=9.2 q=24.8 size=N/A time=00:00:18.28 bitrate=N/A    frame= 1101 fps=9.2 q=24.8 size=N/A time=00:00:18.36 bitrate=N/A    frame= 1106 fps=9.2 q=24.8 size=N/A time=00:00:18.45 bitrate=N/A    frame= 1111 fps=9.2 q=24.8 size=N/A time=00:00:18.53 bitrate=N/A    frame= 1116 fps=9.2 q=24.8 size=N/A time=00:00:18.61 bitrate=N/A    frame= 1121 fps=9.2 q=24.8 size=N/A time=00:00:18.70 bitrate=N/A    frame= 1126 fps=9.2 q=24.8 size=N/A time=00:00:18.78 bitrate=N/A    frame= 1131 fps=9.2 q=24.8 size=N/A time=00:00:18.86 bitrate=N/A    frame= 1136 fps=9.2 q=24.8 size=N/A time=00:00:18.95 bitrate=N/A    frame= 1141 fps=9.2 q=24.8 size=N/A time=00:00:19.03 bitrate=N/A    frame= 1146 fps=9.2 q=24.8 size=N/A time=00:00:19.11 bitrate=N/A    frame= 1151 fps=9.2 q=24.8 size=N/A time=00:00:19.20 bitrate=N/A    frame= 1156 fps=9.2 q=24.8 size=N/A time=00:00:19.28 bitrate=N/A    frame= 1161 fps=9.2 q=24.8 size=N/A time=00:00:19.36 bitrate=N/A    frame= 1166 fps=9.2 q=24.8 size=N/A time=00:00:19.45 bitrate=N/A    frame= 1171 fps=9.2 q=24.8 size=N/A time=00:00:19.53 bitrate=N/A    frame= 1176 fps=9.2 q=24.8 size=N/A time=00:00:19.61 bitrate=N/A    frame= 1181 fps=9.2 q=24.8 size=N/A time=00:00:19.70 bitrate=N/A    frame= 1186 fps=9.2 q=24.8 size=N/A time=00:00:19.78 bitrate=N/A    frame= 1191 fps=9.2 q=24.8 size=N/A time=00:00:19.86 bitrate=N/A    frame= 1196 fps=9.2 q=24.8 size=N/A time=00:00:19.95 bitrate=N/A    frame= 1201 fps=9.2 q=24.8 size=N/A time=00:00:20.03 bitrate=N/A    frame= 1206 fps=9.2 q=24.8 size=N/A time=00:00:20.12 bitrate=N/A    frame= 1211 fps=9.2 q=24.8 size=N/A time=00:00:20.20 bitrate=N/A    frame= 1216 fps=9.2 q=24.8 size=N/A time=00:00:20.28 bitrate=N/A    frame= 1221 fps=9.2 q=24.8 size=N/A time=00:00:20.37 bitrate=N/A    frame= 1226 fps=9.2 q=24.8 size=N/A time=00:00:20.45 bitrate=N/A    frame= 1231 fps=9.2 q=24.8 size=N/A time=00:00:20.53 bitrate=N/A    frame= 1236 fps=9.2 q=24.8 size=N/A time=00:00:20.62 bitrate=N/A    frame= 1241 fps=9.2 q=24.8 size=N/A time=00:00:20.70 bitrate=N/A    frame= 1246 fps=9.2 q=24.8 size=N/A time=00:00:20.78 bitrate=N/A    frame= 1251 fps=9.2 q=24.8 size=N/A time=00:00:20.87 bitrate=N/A    frame= 1256 fps=9.2 q=24.8 size=N/A time=00:00:20.95 bitrate=N/A    frame= 1261 fps=9.2 q=24.8 size=N/A time=00:00:21.03 bitrate=N/A    frame= 1266 fps=9.2 q=24.8 size=N/A time=00:00:21.12 bitrate=N/A    frame= 1271 fps=9.2 q=24.8 size=N/A time=00:00:21.20 bitrate=N/A    frame= 1276 fps=9.2 q=24.8 size=N/A time=00:00:21.28 bitrate=N/A    frame= 1281 fps=9.2 q=24.8 size=N/A time=00:00:21.37 bitrate=N/A    frame= 1286 fps=9.2 q=24.8 size=N/A time=00:00:21.45 bitrate=N/A    frame= 1291 fps=9.2 q=24.8 size=N/A time=00:00:21.53 bitrate=N/A    frame= 1296 fps=9.2 q=24.8 size=N/A time=00:00:21.62 bitrate=N/A    frame= 1301 fps=9.2 q=24.8 size=N/A time=00:00:21.70 bitrate=N/A    frame= 1306 fps=9.2 q=24.8 size=N/A time=00:00:21.78 bitrate=N/A    frame= 1311 fps=9.2 q=24.8 size=N/A time=00:00:21.87 bitrate=N/A    frame= 1316 fps=9.2 q=24.8 size=N/A time=00:00:21.95 bitrate=N/A    frame= 1321 fps=9.2 q=24.8 size=N/A time=00:00:22.03 bitrate=N/A    frame= 1326 fps=9.2 q=24.8 size=N/A time=00:00:22.12 bitrate=N/A    frame= 1331 fps=9.2 q=24.8 size=N/A time=00:00:22.20 bitrate=N/A    frame= 1336 fps=9.2 q=24.8 size=N/A time=00:00:22.28 bitrate=N/A    frame= 1341 fps=9.2 q=24.8 size=N/A time=00:00:22.37 bitrate=N/A    frame= 1346 fps=9.2 q=24.8 size=N/A time=00:00:22.45 bitrate=N/A    frame= 1351 fps=9.2 q=24.8 size=N/A time=00:00:22.53 bitrate=N/A    frame= 1356 fps=9.2 q=24.8 size=N/A time=00:00:22.62 bitrate=N/A    frame= 1361 fps=9.2 q=24.8 size=N/A time=00:00:22.70 bitrate=N/A    frame= 1366 fps=9.2 q=24.8 size=N/A time=00:00:22.78 bitrate=N/A    frame= 1371 fps=9.2 q=24.8 size=N/A time=00:00:22.87 bitrate=N/A    frame= 1376 fps=9.2 q=24.8 size=N/A time=00:00:22.95 bitrate=N/A    frame= 1381 fps=9.2 q=24.8 size=N/A time=00:00:23.03 bitrate=N/A    frame= 1386 fps=9.2 q=24.8 size=N/A time=00:00:23.12 bitrate=N/A    frame= 1391 fps=9.2 q=24.8 size=N/A time=00:00:23.20 bitrate=N/A    frame= 1396 fps=9.2 q=24.8 size=N/A time=00:00:23.28 bitrate=N/A    frame= 1401 fps=9.2 q=24.8 size=N/A time=00:00:23.37 bitrate=N/A    frame= 1406 fps=9.2 q=24.8 size=N/A time=00:00:23.45 bitrate=N/A    frame= 1411 fps=9.2 q=24.8 size=N/A time=00:00:23.54 bitrate=N/A    frame= 1416 fps=9.2 q=24.8 size=N/A time=00:00:23.62 bitrate=N/A    frame= 1421 fps=9.2 q=24.8 size=N/A time=00:00:23.70 bitrate=N/A    frame= 1426 fps=9.2 q=24.8 size=N/A time=00:00:23.79 bitrate=N/A    frame= 1431 fps=9.2 q=24.8 size=N/A time=00:00:23.87 bitrate=N/A    frame= 1436 fps=9.2 q=24.8 size=N/A time=00:00:23.95 bitrate=N/A    frame= 1441 fps=9.2 q=24.8 size=N/A time=00:00:24.04 bitrate=N/A    frame= 1446 fps=9.2 q=24.8 size=N/A time=00:00:24.12 bitrate=N/A    frame= 1451 fps=9.2 q=24.8 size=N/A time=00:00:24.20 bitrate=N/A    frame= 1456 fps=9.2 q=24.8 size=N/A time=00:00:24.29 bitrate=N/A    frame= 1461 fps=9.2 q=24.8 size=N/A time=00:00:24.37 bitrate=N/A    frame= 1466 fps=9.2 q=24.8 size=N/A time=00:00:24.45 bitrate=N/A    frame= 1471 fps=9.2 q=24.8 size=N/A time=00:00:24.54 bitrate=N/A    frame= 1476 fps=9.2 q=24.8 size=N/A time=00:00:24.62 bitrate=N/A    frame= 1481 fps=9.2 q=24.8 size=N/A time=00:00:24.70 bitrate=N/A    frame= 1486 fps=9.2 q=24.8 size=N/A time=00:00:24.79 bitrate=N/A    frame= 1491 fps=9.2 q=24.8 size=N/A time=00:00:24.87 bitrate=N/A    frame= 1496 fps=9.2 q=24.8 size=N/A time=00:00:24.95 bitrate=N/A    frame= 1501 fps=9.2 q=24.8 size=N/A time=00:00:25.04 bitrate=N/A    frame= 1506 fps=9.2 q=24.8 size=N/A time=00:00:25.12 bitrate=N/A    frame= 1511 fps=9.2 q=24.8 size=N/A time=00:00:25.20 bitrate=N/A    frame= 1516 fps=9.2 q=24.8 size=N/A time=00:00:25.29 bitrate=N/A    frame= 1521 fps=9.2 q=24.8 size=N/A time=00:00:25.37 bitrate=N/A    frame= 1526 fps=9.2 q=24.8 size=N/A time=00:00:25.45 bitrate=N/A    frame= 1531 fps=9.2 q=24.8 size=N/A time=00:00:25.54 bitrate=N/A    frame= 1536 fps=9.2 q=24.8 size=N/A time=00:00:25.62 bitrate=N/A    frame= 1541 fps=9.2 q=24.8 size=N/A time=00:00:25.70 bitrate=N/A    frame= 1546 fps=9.2 q=24.8 size=N/A time=00:00:25.79 bitrate=N/A    frame= 1551 fps=9.2 q=24.8 size=N/A time=00:00:25.87 bitrate=N/A    frame= 1556 fps=9.2 q=24.8 size=N/A time=00:00:25.95 bitrate=N/A    frame= 1561 fps=9.2 q=24.8 size=N/A time=00:00:26.04 bitrate=N/A    frame= 1566 fps=9.2 q=24.8 size=N/A time=00:00:26.12 bitrate=N/A    frame= 1571 fps=9.2 q=24.8 size=N/A time=00:00:26.20 bitrate=N/A    frame= 1576 fps=9.2 q=24.8 size=N/A time=00:00:26.29 bitrate=N/A    frame= 1581 fps=9.2 q=24.8 size=N/A time=00:00:26.37 bitrate=N/A    frame= 1586 fps=9.2 q=24.8 size=N/A time=00:00:26.45 bitrate=N/A    frame= 1591 fps=9.2 q=24.8 size=N/A time=00:00:26.54 bitrate=N/A    frame= 1596 fps=9.2 q=24.8 size=N/A time=00:00:26.62 bitrate=N/A    frame= 1601 fps=9.2 q=24.8 size=N/A time=00:00:26.71 bitrate=N/A    frame= 1606 fps=9.2 q=24.8 size=N/A time=00:00:26.79 bitrate=N/A    frame= 1611 fps=9.2 q=24.8 size=N/A time=00:00:26.87 bitrate=N/A    frame= 1616 fps=9.2 q=24.8 size=N/A time=00:00:26.96 bitrate=N/A    frame= 1621 fps=9.2 q=24.8 size=N/A time=00:00:27.04 bitrate=N/A    frame= 1626 fps=9.2 q=24.8 size=N/A time=00:00:27.12 bitrate=N/A    frame= 1631 fps=9.2 q=24.8 size=N/A time=00:00:27.21 bitrate=N/A    frame= 1636 fps=9.2 q=24.8 size=N/A time=00:00:27.29 bitrate=N/A    frame= 1641 fps=9.2 q=24.8 size=N/A time=00:00:27.37 bitrate=N/A    frame= 1646 fps=9.2 q=24.8 size=N/A time=00:00:27.46 bitrate=N/A    frame= 1651 fps=9.2 q=24.8 size=N/A time=00:00:27.54 bitrate=N/A    frame= 1656 fps=9.2 q=24.8 size=N/A time=00:00:27.62 bitrate=N/A    frame= 1661 fps=9.2 q=24.8 size=N/A time=00:00:27.71 bitrate=N/A    frame= 1666 fps=9.2 q=24.8 size=N/A time=00:00:27.79 bitrate=N/A    frame= 1671 fps=9.2 q=24.8 size=N/A time=00:00:27.87 bitrate=N/A    frame= 1676 fps=9.2 q=24.8 size=N/A time=00:00:27.96 bitrate=N/A    frame= 1681 fps=9.2 q=24.8 size=N/A time=00:00:28.04 bitrate=N/A    frame= 1686 fps=9.2 q=24.8 size=N/A time=00:00:28.12 bitrate=N/A    frame= 1691 fps=9.2 q=24.8 size=N/A time=00:00:28.21 bitrate=N/A    frame= 1696 fps=9.2 q=24.8 size=N/A time=00:00:28.29 bitrate=N/A    frame= 1701 fps=9.2 q=24.8 size=N/A time=00:00:28.37 bitrate=N/A    frame= 1706 fps=9.2 q=24.8 size=N/A time=00:00:28.46 bitrate=N/A    frame= 1711 fps=9.2 q=24.8 size=N/A time=00:00:28.54 bitrate=N/A    frame= 1716 fps=9.2 q=24.8 size=N/A time=00:00:28.62 bitrate=N/A    frame= 1721 fps=9.2 q=24.8 size=N/A time=00:00:28.71 bitrate=N/A    frame= 1726 fps=9.2 q=24.8 size=N/A time=00:00:28.79 bitrate=N/A    frame= 1731 fps=9.2 q=24.8 size=N/A time=00:00:28.87 bitrate=N/A    frame= 1736 fps=9.2 q=24.8 size=N/A time=00:00:28.96 bitrate=N/A    frame= 1741 fps=9.2 q=24.8 size=N/A time=00:00:29.04 bitrate=N/A    frame= 1746 fps=9.2 q=24.8 size=N/A time=00:00:29.12 bitrate=N/A    frame= 1751 fps=9.2 q=24.8 size=N/A time=00:00:29.21 bitrate=N/A    frame= 1756 fps=9.2 q=24.8 size=N/A time=00:00:29.29 bitrate=N/A    frame= 1761 fps=9.2 q=24.8 size=N/A time=00:00:29.37 bitrate=N/A    frame= 1766 fps=9.2 q=24.8 size=N/A time=00:00:29.46 bitrate=N/A    frame= 1771 fps=9.2 q=24.8 size=N/A time=00:00:29.54 bitrate=N/A    frame= 1776 fps=9.2 q=24.8 size=N/A time=00:00:29.62 bitrate=N/A    frame= 1781 fps=9.2 q=24.8 size=N/A time=00:00:29.71 bitrate=N/A    frame= 1786 fps=9.2 q=24.8 size=N/A time=00:00:29.79 bitrate=N/A    frame= 1791 fps=9.2 q=24.8 size=N/A time=00:00:29.87 bitrate=N/A    frame= 1796 fps=9.2 q=24.8 size=N/A time=00:00:29.96 bitrate=N/A    frame= 1801 fps=9.2 q=24.8 size=N/A time=00:00:30.04 bitrate=N/A    frame= 1806 fps=9.2 q=24.8 size=N/A time=00:00:30.13 bitrate=N/A    frame= 1811 fps=9.3 q=24.8 size=N/A time=00:00:30.21 bitrate=N/A    frame= 1816 fps=9.3 q=24.8 size=N/A time=00:00:30.29 bitrate=N/A    frame= 1821 fps=9.3 q=24.8 size=N/A time=00:00:30.38 bitrate=N/A    frame= 1826 fps=9.3 q=24.8 size=N/A time=00:00:30.46 bitrate=N/A    frame= 1831 fps=9.3 q=24.8 size=N/A time=00:00:30.54 bitrate=N/A    frame= 1836 fps=9.3 q=24.8 size=N/A time=00:00:30.63 bitrate=N/A    frame= 1841 fps=9.3 q=24.8 size=N/A time=00:00:30.71 bitrate=N/A    frame= 1846 fps=9.3 q=24.8 size=N/A time=00:00:30.79 bitrate=N/A    frame= 1851 fps=9.3 q=24.8 size=N/A time=00:00:30.88 bitrate=N/A    frame= 1856 fps=9.3 q=24.8 size=N/A time=00:00:30.96 bitrate=N/A    frame= 1861 fps=9.3 q=24.8 size=N/A time=00:00:31.04 bitrate=N/A    frame= 1866 fps=9.3 q=24.8 size=N/A time=00:00:31.13 bitrate=N/A    frame= 1871 fps=9.3 q=24.8 size=N/A time=00:00:31.21 bitrate=N/A    frame= 1876 fps=9.3 q=24.8 size=N/A time=00:00:31.29 bitrate=N/A    frame= 1881 fps=9.3 q=24.8 size=N/A time=00:00:31.38 bitrate=N/A    frame= 1886 fps=9.3 q=24.8 size=N/A time=00:00:31.46 bitrate=N/A    frame= 1891 fps=9.3 q=24.8 size=N/A time=00:00:31.54 bitrate=N/A    frame= 1896 fps=9.3 q=24.8 size=N/A time=00:00:31.63 bitrate=N/A    frame= 1901 fps=9.3 q=24.8 size=N/A time=00:00:31.71 bitrate=N/A    frame= 1906 fps=9.3 q=24.8 size=N/A time=00:00:31.79 bitrate=N/A    frame= 1911 fps=9.3 q=24.8 size=N/A time=00:00:31.88 bitrate=N/A    frame= 1916 fps=9.3 q=24.8 size=N/A time=00:00:31.96 bitrate=N/A    frame= 1921 fps=9.3 q=24.8 size=N/A time=00:00:32.04 bitrate=N/A    frame= 1926 fps=9.3 q=24.8 size=N/A time=00:00:32.13 bitrate=N/A    frame= 1931 fps=9.3 q=24.8 size=N/A time=00:00:32.21 bitrate=N/A    frame= 1936 fps=9.3 q=24.8 size=N/A time=00:00:32.29 bitrate=N/A    frame= 1941 fps=9.3 q=24.8 size=N/A time=00:00:32.38 bitrate=N/A    frame= 1946 fps=9.3 q=24.8 size=N/A time=00:00:32.46 bitrate=N/A    frame= 1951 fps=9.3 q=24.8 size=N/A time=00:00:32.54 bitrate=N/A    frame= 1956 fps=9.3 q=24.8 size=N/A time=00:00:32.63 bitrate=N/A    frame= 1961 fps=9.3 q=24.8 size=N/A time=00:00:32.71 bitrate=N/A    frame= 1966 fps=9.3 q=24.8 size=N/A time=00:00:32.79 bitrate=N/A    frame= 1971 fps=9.3 q=24.8 size=N/A time=00:00:32.88 bitrate=N/A    frame= 1976 fps=9.3 q=24.8 size=N/A time=00:00:32.96 bitrate=N/A    frame= 1981 fps=9.3 q=24.8 size=N/A time=00:00:33.04 bitrate=N/A    frame= 1986 fps=9.3 q=24.8 size=N/A time=00:00:33.13 bitrate=N/A    frame= 1991 fps=9.3 q=24.8 size=N/A time=00:00:33.21 bitrate=N/A    frame= 1996 fps=9.3 q=24.8 size=N/A time=00:00:33.29 bitrate=N/A    frame= 2001 fps=9.3 q=24.8 size=N/A time=00:00:33.38 bitrate=N/A    frame= 2006 fps=9.3 q=24.8 size=N/A time=00:00:33.46 bitrate=N/A    frame= 2011 fps=9.3 q=24.8 size=N/A time=00:00:33.55 bitrate=N/A    frame= 2016 fps=9.3 q=24.8 size=N/A time=00:00:33.63 bitrate=N/A    frame= 2021 fps=9.3 q=24.8 size=N/A time=00:00:33.71 bitrate=N/A    frame= 2026 fps=9.3 q=24.8 size=N/A time=00:00:33.80 bitrate=N/A    frame= 2031 fps=9.3 q=24.8 size=N/A time=00:00:33.88 bitrate=N/A    frame= 2036 fps=9.3 q=24.8 size=N/A time=00:00:33.96 bitrate=N/A    frame= 2041 fps=9.3 q=24.8 size=N/A time=00:00:34.05 bitrate=N/A    frame= 2046 fps=9.3 q=24.8 size=N/A time=00:00:34.13 bitrate=N/A    frame= 2051 fps=9.3 q=24.8 size=N/A time=00:00:34.21 bitrate=N/A    frame= 2056 fps=9.3 q=24.8 size=N/A time=00:00:34.30 bitrate=N/A    frame= 2061 fps=9.3 q=24.8 size=N/A time=00:00:34.38 bitrate=N/A    frame= 2066 fps=9.3 q=24.8 size=N/A time=00:00:34.46 bitrate=N/A    frame= 2071 fps=9.3 q=24.8 size=N/A time=00:00:34.55 bitrate=N/A    frame= 2076 fps=9.3 q=24.8 size=N/A time=00:00:34.63 bitrate=N/A    frame= 2081 fps=9.3 q=24.8 size=N/A time=00:00:34.71 bitrate=N/A    frame= 2086 fps=9.3 q=24.8 size=N/A time=00:00:34.80 bitrate=N/A    frame= 2091 fps=9.3 q=24.8 size=N/A time=00:00:34.88 bitrate=N/A    frame= 2096 fps=9.3 q=24.8 size=N/A time=00:00:34.96 bitrate=N/A    frame= 2101 fps=9.3 q=24.8 size=N/A time=00:00:35.05 bitrate=N/A    frame= 2106 fps=9.3 q=24.8 size=N/A time=00:00:35.13 bitrate=N/A    frame= 2111 fps=9.3 q=24.8 size=N/A time=00:00:35.21 bitrate=N/A    frame= 2116 fps=9.3 q=24.8 size=N/A time=00:00:35.30 bitrate=N/A    frame= 2121 fps=9.3 q=24.8 size=N/A time=00:00:35.38 bitrate=N/A    frame= 2126 fps=9.3 q=24.8 size=N/A time=00:00:35.46 bitrate=N/A    frame= 2131 fps=9.3 q=24.8 size=N/A time=00:00:35.55 bitrate=N/A    frame= 2136 fps=9.3 q=24.8 size=N/A time=00:00:35.63 bitrate=N/A    frame= 2141 fps=9.3 q=24.8 size=N/A time=00:00:35.71 bitrate=N/A    frame= 2146 fps=9.3 q=24.8 size=N/A time=00:00:35.80 bitrate=N/A    frame= 2151 fps=9.3 q=24.8 size=N/A time=00:00:35.88 bitrate=N/A    frame= 2156 fps=9.3 q=24.8 size=N/A time=00:00:35.96 bitrate=N/A    frame= 2161 fps=9.3 q=24.8 size=N/A time=00:00:36.05 bitrate=N/A    frame= 2166 fps=9.3 q=24.8 size=N/A time=00:00:36.13 bitrate=N/A    frame= 2171 fps=9.3 q=24.8 size=N/A time=00:00:36.21 bitrate=N/A    frame= 2176 fps=9.3 q=24.8 size=N/A time=00:00:36.30 bitrate=N/A    frame= 2181 fps=9.3 q=24.8 size=N/A time=00:00:36.38 bitrate=N/A    frame= 2186 fps=9.3 q=24.8 size=N/A time=00:00:36.46 bitrate=N/A    frame= 2191 fps=9.3 q=24.8 size=N/A time=00:00:36.55 bitrate=N/A    frame= 2196 fps=9.3 q=24.8 size=N/A time=00:00:36.63 bitrate=N/A    frame= 2201 fps=9.3 q=24.8 size=N/A time=00:00:36.72 bitrate=N/A    frame= 2206 fps=9.3 q=24.8 size=N/A time=00:00:36.80 bitrate=N/A    frame= 2211 fps=9.3 q=24.8 size=N/A time=00:00:36.88 bitrate=N/A    frame= 2216 fps=9.3 q=24.8 size=N/A time=00:00:36.97 bitrate=N/A    frame= 2221 fps=9.3 q=24.8 size=N/A time=00:00:37.05 bitrate=N/A    frame= 2226 fps=9.3 q=24.8 size=N/A time=00:00:37.13 bitrate=N/A    frame= 2231 fps=9.3 q=24.8 size=N/A time=00:00:37.22 bitrate=N/A    frame= 2236 fps=9.3 q=24.8 size=N/A time=00:00:37.30 bitrate=N/A    frame= 2241 fps=9.3 q=24.8 size=N/A time=00:00:37.38 bitrate=N/A    frame= 2246 fps=9.3 q=24.8 size=N/A time=00:00:37.47 bitrate=N/A    frame= 2251 fps=9.3 q=24.8 size=N/A time=00:00:37.55 bitrate=N/A    frame= 2256 fps=9.3 q=24.8 size=N/A time=00:00:37.63 bitrate=N/A    frame= 2261 fps=9.3 q=24.8 size=N/A time=00:00:37.72 bitrate=N/A    frame= 2266 fps=9.3 q=24.8 size=N/A time=00:00:37.80 bitrate=N/A    frame= 2271 fps=9.3 q=24.8 size=N/A time=00:00:37.88 bitrate=N/A    frame= 2276 fps=9.3 q=24.8 size=N/A time=00:00:37.97 bitrate=N/A    frame= 2281 fps=9.3 q=24.8 size=N/A time=00:00:38.05 bitrate=N/A    frame= 2286 fps=9.3 q=24.8 size=N/A time=00:00:38.13 bitrate=N/A    frame= 2291 fps=9.3 q=24.8 size=N/A time=00:00:38.22 bitrate=N/A    frame= 2296 fps=9.3 q=24.8 size=N/A time=00:00:38.30 bitrate=N/A    frame= 2301 fps=9.3 q=24.8 size=N/A time=00:00:38.38 bitrate=N/A    frame= 2306 fps=9.3 q=24.8 size=N/A time=00:00:38.47 bitrate=N/A    frame= 2311 fps=9.3 q=24.8 size=N/A time=00:00:38.55 bitrate=N/A    frame= 2316 fps=9.3 q=24.8 size=N/A time=00:00:38.63 bitrate=N/A    frame= 2321 fps=9.3 q=24.8 size=N/A time=00:00:38.72 bitrate=N/A    frame= 2326 fps=9.3 q=24.8 size=N/A time=00:00:38.80 bitrate=N/A    frame= 2331 fps=9.3 q=24.8 size=N/A time=00:00:38.88 bitrate=N/A    frame= 2331 fps=9.3 q=24.8 Lsize=N/A time=00:00:38.88 bitrate=N/A    
video:1593349kB audio:0kB subtitle:0kB other streams:0kB global headers:0kB muxing overhead: unknown
+ turkic load DJI_0097_30m_ragas_tobb_helyen_Vaskut_20180512_napos_kalaszos_T1 /home/horvathandras/vatic/vatic/videos/DJI_0097_30m_ragas_tobb_helyen_Vaskut_20180512_napos_kalaszos_T1 $'Pozit\303\255vROI' $'Negat\303\255vROI' $'T\303\272r\303\241s' '~Friss' '~Régebbi' $'R\303\241g\303\241s' '~Friss' '~Régebbi' $'T\303\266r\303\251s' '~Friss' '~Régebbi' $'Tapos\303\241s' '~Friss' '~Régebbi' $'Eg\303\251szs\303\251gesN\303\266v\303\251ny' $'Egy\303\251b1' $'Egy\303\251b2' $'Egy\303\251b3' $'Egy\303\251b4' $'Egy\303\251b5' --offline --title '$filenameNoDot Video' --length 1000 --description 'vatic annotation'
+ turkic publish --offline
+ mkdir /home/horvathandras/vatic/vatic/public/videothumbnails/DJI_0097_30m_ragas_tobb_helyen_Vaskut_20180512_napos_kalaszos_T1
+ cp /home/horvathandras/vatic/vatic/videos/DJI_0097_30m_ragas_tobb_helyen_Vaskut_20180512_napos_kalaszos_T1/0/0/31.jpg /home/horvathandras/vatic/vatic/public/videothumbnails/DJI_0097_30m_ragas_tobb_helyen_Vaskut_20180512_napos_kalaszos_T1/thumb.jpg
